<svg width="1024" height="512" viewBox="0 0 1024 512" fill="none" xmlns="http://www.w3.org/2000/svg">
<rect width="1024" height="512" fill="#D9D9D9"/>
<path d="M292.282 409.03L262.776 345.753L272.498 341.22L302.004 404.497L292.282 409.03ZM262.801 332.902C260.906 333.786 258.971 333.902 256.996 333.252C255.049 332.588 253.652 331.351 252.807 329.538C251.962 327.725 251.911 325.86 252.655 323.942C253.426 322.01 254.759 320.603 256.654 319.719C258.549 318.836 260.471 318.725 262.418 319.389C264.393 320.039 265.803 321.271 266.649 323.083C267.494 324.896 267.531 326.768 266.76 328.699C266.016 330.617 264.696 332.018 262.801 332.902ZM319.811 396.193L290.305 332.916L299.697 328.536L304.308 338.423L305.132 338.039C304.875 334.046 305.78 330.431 307.848 327.193C309.903 323.928 312.99 321.335 317.11 319.414C321.284 317.467 325.2 316.795 328.858 317.396C332.53 317.957 335.936 319.562 339.077 322.21L339.736 321.903C339.832 317.879 341.053 314.15 343.397 310.717C345.729 307.256 349.16 304.468 353.692 302.355C359.349 299.717 364.803 299.331 370.053 301.196C375.29 303.034 379.644 307.674 383.114 315.117L402.862 357.466L393.14 361.999L373.392 319.65C371.215 314.981 368.382 312.24 364.893 311.426C361.404 310.612 357.929 311.012 354.468 312.626C350.019 314.7 347.2 317.653 346.011 321.485C344.809 325.288 345.162 329.236 347.07 333.328L366.28 374.524L356.393 379.135L336.184 335.797C334.507 332.199 331.988 329.846 328.629 328.737C325.257 327.601 321.732 327.891 318.051 329.607C315.525 330.785 313.477 332.56 311.907 334.93C310.365 337.287 309.478 339.975 309.246 342.991C309.03 345.968 309.645 349.008 311.092 352.112L329.533 391.66L319.811 396.193ZM439.95 341.977C435.94 343.847 431.949 344.788 427.977 344.802C423.991 344.788 420.365 343.787 417.098 341.8C413.818 339.785 411.217 336.718 409.296 332.599C407.606 328.973 406.95 325.702 407.328 322.784C407.693 319.838 408.769 317.163 410.556 314.758C412.344 312.353 414.532 310.162 417.121 308.186C419.725 306.169 422.407 304.284 425.166 302.529C428.78 300.242 431.725 298.417 433.999 297.056C436.288 295.654 437.834 294.382 438.638 293.238C439.469 292.081 439.52 290.72 438.79 289.154L438.637 288.825C436.741 284.76 434.156 282.12 430.881 280.906C427.634 279.678 423.772 280.108 419.296 282.196C414.654 284.36 411.489 287.073 409.8 290.335C408.111 293.597 407.269 296.631 407.274 299.437L396.509 300.444C396.364 295.831 397.165 291.813 398.913 288.39C400.675 284.927 402.992 282.008 405.863 279.632C408.749 277.217 411.785 275.266 414.97 273.781C417.003 272.833 419.452 271.992 422.319 271.256C425.201 270.481 428.224 270.259 431.387 270.589C434.578 270.907 437.695 272.178 440.739 274.403C443.783 276.629 446.476 280.254 448.82 285.28L468.26 326.97L458.538 331.504L454.542 322.935L454.048 323.165C454.029 324.846 453.616 326.828 452.808 329.11C452 331.393 450.575 333.679 448.533 335.968C446.491 338.258 443.63 340.261 439.95 341.977ZM437.36 332.552C441.205 330.759 444.094 328.492 446.026 325.753C447.986 323 449.081 320.115 449.313 317.098C449.572 314.068 449.087 311.235 447.857 308.599L443.708 299.7C443.527 300.387 442.832 301.263 441.623 302.328C440.429 303.353 438.996 304.439 437.325 305.586C435.667 306.693 434.039 307.753 432.438 308.767C430.853 309.741 429.57 310.539 428.591 311.163C426.218 312.671 424.105 314.308 422.254 316.074C420.417 317.8 419.166 319.704 418.499 321.787C417.846 323.83 418.096 326.088 419.249 328.559C420.824 331.937 423.265 333.909 426.571 334.474C429.892 334.998 433.488 334.358 437.36 332.552ZM523.226 331.832C518.53 334.022 514.211 335.301 510.27 335.667C506.341 336.062 502.796 335.809 499.634 334.909C496.513 334.024 493.782 332.79 491.439 331.208L496.648 322.159C498.065 322.902 499.792 323.702 501.829 324.557C503.879 325.44 506.327 325.887 509.174 325.897C512.061 325.921 515.413 325.044 519.231 323.264C524.339 320.882 527.978 317.68 530.149 313.659C532.319 309.637 532.175 304.99 529.716 299.717L523.723 286.864L522.899 287.248C522.723 288.734 522.373 290.636 521.848 292.954C521.339 295.231 520.169 297.599 518.34 300.057C516.525 302.475 513.557 304.644 509.438 306.565C504.33 308.947 499.18 309.877 493.988 309.356C488.824 308.822 483.985 306.798 479.472 303.286C474.986 299.76 471.206 294.702 468.132 288.111C465.11 281.629 463.618 275.454 463.656 269.585C463.682 263.688 465.112 258.474 467.947 253.942C470.77 249.383 474.845 245.861 480.173 243.376C484.293 241.455 487.881 240.618 490.938 240.864C494.01 241.07 496.595 241.737 498.692 242.865C500.805 243.953 502.474 244.88 503.7 245.646L504.689 245.185L500.002 235.133L509.394 230.753L539.746 295.842C542.282 301.28 543.108 306.278 542.224 310.836C541.381 315.409 539.257 319.459 535.852 322.986C532.488 326.527 528.28 329.476 523.226 331.832ZM506.684 297.217C510.583 295.398 513.463 292.969 515.322 289.929C517.181 286.888 518.03 283.366 517.868 279.363C517.706 275.359 516.537 271.023 514.36 266.354C512.234 261.795 509.671 258.092 506.671 255.244C503.672 252.396 500.365 250.611 496.752 249.889C493.138 249.167 489.354 249.728 485.399 251.572C481.279 253.493 478.333 256.137 476.56 259.505C474.814 262.86 474.075 266.616 474.341 270.771C474.634 274.914 475.78 279.128 477.778 283.412C479.827 287.806 482.325 291.372 485.274 294.11C488.237 296.808 491.526 298.484 495.142 299.138C498.772 299.753 502.619 299.112 506.684 297.217ZM583.842 274.678C577.745 277.521 571.858 278.628 566.182 277.998C560.52 277.329 555.36 275.12 550.704 271.373C546.063 267.586 542.231 262.452 539.209 255.97C536.186 249.489 534.703 243.226 534.76 237.181C534.831 231.096 536.349 225.674 539.312 220.915C542.29 216.116 546.636 212.384 552.348 209.72C555.644 208.184 559.154 207.215 562.88 206.815C566.605 206.416 570.363 206.837 574.152 208.079C577.928 209.294 581.54 211.555 584.988 214.862C588.436 218.169 591.537 222.775 594.291 228.68L596.212 232.8L547.436 255.544L543.517 247.14L582.406 229.006C580.741 225.436 578.541 222.583 575.807 220.448C573.1 218.3 570.064 217.024 566.699 216.62C563.362 216.203 559.936 216.815 556.421 218.454C552.548 220.26 549.646 222.783 547.714 226.025C545.796 229.226 544.793 232.703 544.704 236.456C544.615 240.209 545.383 243.829 547.01 247.317L549.622 252.92C551.851 257.698 554.564 261.365 557.761 263.92C560.973 266.434 564.466 267.865 568.238 268.212C571.999 268.532 575.842 267.776 579.77 265.945C582.324 264.754 584.464 263.321 586.191 261.646C587.933 259.932 589.219 257.994 590.051 255.834C590.87 253.647 591.179 251.262 590.978 248.681L601.601 246.938C602.097 250.585 601.742 254.161 600.535 257.666C599.314 261.144 597.302 264.356 594.496 267.303C591.678 270.222 588.127 272.68 583.842 274.678ZM646.14 184.24L638.559 190.785C637.331 189.585 635.861 188.549 634.15 187.675C632.453 186.761 630.487 186.273 628.252 186.212C626.017 186.151 623.485 186.78 620.656 188.099C616.784 189.905 613.973 192.302 612.224 195.291C610.489 198.24 610.256 201.074 611.524 203.793C612.651 206.21 614.42 207.708 616.83 208.289C619.241 208.871 622.532 208.757 626.702 207.949L637.171 205.876C643.469 204.611 648.664 204.746 652.757 206.282C656.837 207.79 659.908 210.754 661.97 215.176C663.66 218.801 664.128 222.529 663.373 226.358C662.645 230.175 660.811 233.772 657.872 237.148C654.933 240.525 651.005 243.36 646.089 245.652C639.635 248.662 633.64 249.752 628.104 248.923C622.569 248.094 617.983 245.25 614.347 240.392L622.499 233.782C624.966 236.778 627.818 238.557 631.057 239.12C634.322 239.671 637.946 239.017 641.929 237.16C646.46 235.047 649.61 232.408 651.377 229.243C653.159 226.039 653.417 223.077 652.149 220.358C651.124 218.161 649.497 216.679 647.268 215.913C645.025 215.12 642.138 215.095 638.607 215.839L626.908 218.285C620.473 219.614 615.223 219.471 611.16 217.855C607.111 216.199 604.068 213.187 602.032 208.821C600.367 205.25 599.897 201.624 600.621 197.943C601.373 194.249 603.127 190.806 605.885 187.614C608.671 184.41 612.288 181.77 616.737 179.695C622.999 176.775 628.555 175.856 633.406 176.938C638.285 178.006 642.529 180.441 646.14 184.24ZM728.494 205.621L732.72 214.684L679.99 239.273L675.764 230.21L728.494 205.621ZM737.114 201.601L733.657 194.186L747.29 150.715C748.893 145.621 750.137 141.263 751.023 137.64C751.895 133.99 752.295 130.761 752.223 127.952C752.165 125.104 751.534 122.389 750.33 119.807C748.947 116.841 747.036 114.606 744.596 113.102C742.184 111.586 739.48 110.807 736.485 110.766C733.49 110.725 730.468 111.415 727.42 112.836C724.179 114.348 721.664 116.34 719.875 118.812C718.1 121.245 717.111 123.963 716.907 126.967C716.73 129.958 717.391 133.061 718.889 136.274L709.167 140.807C706.862 135.864 705.978 130.993 706.516 126.195C707.054 121.397 708.8 117.039 711.754 113.12C714.735 109.189 718.684 106.077 723.6 103.784C728.543 101.479 733.411 100.48 738.201 100.787C742.992 101.095 747.298 102.514 751.12 105.045C754.942 107.576 757.864 111.011 759.888 115.35C761.335 118.454 762.187 121.751 762.444 125.242C762.716 128.693 762.324 132.872 761.268 137.777C760.227 142.643 758.499 148.798 756.086 156.243L746.587 185.348L746.895 186.007L786.113 167.719L790.339 176.782L737.114 201.601Z" fill="#A0A0A0"/>
</svg>
