<svg width="1024" height="512" viewBox="0 0 1024 512" fill="none" xmlns="http://www.w3.org/2000/svg">
<rect width="1024" height="512" fill="#D9D9D9"/>
<path d="M293.132 408.634L263.625 345.357L273.347 340.824L302.854 404.1L293.132 408.634ZM263.651 332.506C261.756 333.389 259.821 333.506 257.846 332.856C255.898 332.192 254.502 330.954 253.657 329.142C252.811 327.329 252.761 325.464 253.504 323.545C254.276 321.614 255.609 320.207 257.504 319.323C259.399 318.439 261.32 318.329 263.268 318.993C265.243 319.643 266.653 320.875 267.498 322.687C268.344 324.5 268.381 326.372 267.609 328.303C266.865 330.221 265.546 331.622 263.651 332.506ZM320.661 395.797L291.154 332.52L300.547 328.14L305.157 338.027L305.981 337.643C305.724 333.65 306.63 330.035 308.698 326.797C310.753 323.532 313.84 320.939 317.959 319.018C322.134 317.071 326.05 316.398 329.707 317C333.38 317.561 336.786 319.166 339.927 321.814L340.586 321.507C340.682 317.483 341.902 313.754 344.247 310.321C346.578 306.859 350.01 304.072 354.541 301.959C360.199 299.321 365.653 298.935 370.902 300.8C376.139 302.637 380.493 307.278 383.964 314.72L403.712 357.07L393.989 361.603L374.242 319.254C372.064 314.585 369.231 311.844 365.742 311.03C362.253 310.216 358.779 310.616 355.318 312.23C350.869 314.304 348.05 317.257 346.861 321.088C345.658 324.892 346.012 328.84 347.92 332.932L367.13 374.128L357.243 378.738L337.034 335.4C335.356 331.803 332.838 329.45 329.479 328.341C326.107 327.205 322.581 327.495 318.901 329.211C316.374 330.389 314.326 332.164 312.757 334.534C311.215 336.891 310.328 339.578 310.096 342.595C309.879 345.572 310.494 348.612 311.941 351.715L330.383 391.263L320.661 395.797ZM440.8 341.581C436.79 343.45 432.799 344.392 428.826 344.406C424.841 344.392 421.215 343.391 417.947 341.404C414.667 339.389 412.067 336.322 410.146 332.202C408.455 328.577 407.799 325.305 408.177 322.387C408.542 319.442 409.619 316.767 411.406 314.362C413.194 311.957 415.382 309.766 417.971 307.79C420.575 305.773 423.256 303.887 426.016 302.133C429.63 299.845 432.574 298.021 434.849 296.66C437.137 295.258 438.684 293.985 439.488 292.841C440.319 291.685 440.37 290.324 439.64 288.758L439.486 288.429C437.591 284.364 435.006 281.724 431.731 280.51C428.484 279.282 424.622 279.712 420.145 281.799C415.504 283.964 412.339 286.677 410.65 289.939C408.961 293.2 408.119 296.234 408.124 299.041L397.359 300.048C397.214 295.435 398.015 291.417 399.763 287.994C401.525 284.531 403.841 281.612 406.713 279.236C409.598 276.821 412.634 274.87 415.82 273.384C417.852 272.437 420.302 271.595 423.169 270.86C426.051 270.085 429.073 269.862 432.237 270.193C435.427 270.511 438.545 271.782 441.588 274.007C444.632 276.232 447.326 279.858 449.669 284.884L469.11 326.574L459.388 331.107L455.392 322.539L454.898 322.769C454.879 324.45 454.465 326.431 453.657 328.714C452.849 330.997 451.425 333.283 449.383 335.572C447.341 337.862 444.48 339.865 440.8 341.581ZM438.21 332.156C442.055 330.363 444.944 328.096 446.876 325.356C448.835 322.604 449.931 319.719 450.163 316.702C450.422 313.672 449.936 310.839 448.707 308.203L444.558 299.304C444.376 299.991 443.681 300.866 442.473 301.932C441.279 302.956 439.846 304.042 438.174 305.19C436.517 306.297 434.888 307.357 433.288 308.371C431.702 309.344 430.42 310.143 429.44 310.767C427.067 312.275 424.955 313.912 423.104 315.678C421.267 317.404 420.015 319.308 419.348 321.391C418.696 323.434 418.946 325.691 420.099 328.163C421.674 331.541 424.114 333.513 427.421 334.077C430.741 334.602 434.338 333.961 438.21 332.156ZM524.076 331.436C519.38 333.626 515.061 334.904 511.119 335.271C507.19 335.665 503.645 335.413 500.484 334.513C497.363 333.628 494.631 332.394 492.288 330.812L497.498 321.762C498.914 322.506 500.641 323.306 502.679 324.161C504.729 325.044 507.177 325.491 510.024 325.501C512.911 325.525 516.263 324.648 520.08 322.867C525.189 320.485 528.828 317.284 530.999 313.262C533.169 309.241 533.025 304.594 530.566 299.321L524.573 286.468L523.749 286.852C523.572 288.338 523.222 290.24 522.698 292.558C522.188 294.835 521.019 297.203 519.189 299.661C517.374 302.078 514.407 304.248 510.288 306.169C505.179 308.551 500.029 309.481 494.838 308.96C489.673 308.425 484.835 306.402 480.321 302.889C475.835 299.364 472.056 294.306 468.982 287.714C465.96 281.233 464.468 275.058 464.506 269.188C464.532 263.292 465.962 258.078 468.797 253.546C471.62 248.986 475.695 245.464 481.023 242.98C485.142 241.059 488.731 240.222 491.788 240.468C494.86 240.674 497.444 241.341 499.542 242.469C501.654 243.557 503.324 244.484 504.55 245.25L505.539 244.789L500.851 234.737L510.244 230.357L540.596 295.446C543.131 300.884 543.957 305.882 543.074 310.44C542.23 315.013 540.106 319.063 536.702 322.589C533.338 326.131 529.129 329.08 524.076 331.436ZM507.533 296.821C511.433 295.002 514.313 292.573 516.172 289.532C518.031 286.492 518.879 282.97 518.718 278.967C518.556 274.963 517.386 270.627 515.209 265.958C513.083 261.399 510.521 257.695 507.521 254.848C504.521 252 501.215 250.215 497.601 249.493C493.988 248.771 490.203 249.331 486.249 251.176C482.129 253.097 479.183 255.741 477.41 259.109C475.664 262.464 474.924 266.219 475.19 270.375C475.484 274.518 476.63 278.732 478.627 283.016C480.676 287.41 483.175 290.976 486.124 293.714C489.087 296.411 492.376 298.087 495.991 298.742C499.621 299.356 503.469 298.716 507.533 296.821ZM584.692 274.282C578.595 277.125 572.708 278.232 567.031 277.602C561.369 276.932 556.21 274.724 551.554 270.977C546.912 267.19 543.081 262.056 540.058 255.574C537.036 249.093 535.553 242.829 535.61 236.785C535.681 230.699 537.198 225.277 540.162 220.519C543.14 215.719 547.485 211.988 553.198 209.324C556.493 207.787 560.004 206.819 563.73 206.419C567.455 206.019 571.212 206.441 575.002 207.683C578.778 208.898 582.39 211.159 585.838 214.466C589.286 217.773 592.387 222.379 595.14 228.284L597.061 232.404L548.285 255.148L544.367 246.744L583.255 228.61C581.591 225.04 579.391 222.187 576.657 220.051C573.95 217.903 570.914 216.627 567.549 216.224C564.212 215.807 560.786 216.418 557.27 218.058C553.398 219.863 550.496 222.387 548.563 225.629C546.646 228.83 545.642 232.307 545.553 236.06C545.464 239.813 546.233 243.433 547.859 246.921L550.472 252.524C552.7 257.302 555.413 260.969 558.611 263.524C561.823 266.038 565.315 267.469 569.088 267.816C572.848 268.136 576.692 267.38 580.619 265.549C583.173 264.358 585.314 262.925 587.041 261.25C588.782 259.535 590.069 257.598 590.901 255.438C591.72 253.251 592.029 250.866 591.828 248.285L602.45 246.542C602.947 250.188 602.592 253.765 601.384 257.27C600.164 260.748 598.151 263.96 595.346 266.907C592.528 269.826 588.976 272.284 584.692 274.282ZM646.99 183.844L639.409 190.388C638.181 189.189 636.711 188.152 635 187.279C633.303 186.365 631.337 185.877 629.102 185.816C626.866 185.755 624.334 186.384 621.506 187.703C617.633 189.509 614.822 191.906 613.073 194.895C611.339 197.844 611.105 200.678 612.373 203.396C613.5 205.813 615.269 207.312 617.68 207.893C620.091 208.474 623.381 208.361 627.552 207.553L638.02 205.48C644.318 204.215 649.514 204.35 653.607 205.886C657.687 207.393 660.758 210.358 662.82 214.78C664.51 218.405 664.978 222.132 664.222 225.962C663.494 229.779 661.661 233.375 658.722 236.752C655.782 240.129 651.855 242.963 646.939 245.256C640.485 248.265 634.49 249.356 628.954 248.527C623.418 247.697 618.832 244.854 615.196 239.996L623.348 233.386C625.815 236.382 628.668 238.161 631.906 238.724C635.172 239.274 638.796 238.621 642.778 236.764C647.31 234.651 650.459 232.012 652.227 228.847C654.009 225.642 654.266 222.68 652.998 219.961C651.974 217.764 650.347 216.283 648.117 215.517C645.875 214.724 642.988 214.699 639.456 215.443L627.758 217.889C621.322 219.218 616.073 219.075 612.009 217.459C607.96 215.803 604.918 212.791 602.882 208.424C601.217 204.854 600.746 201.228 601.471 197.547C602.222 193.853 603.977 190.41 606.735 187.218C609.52 184.013 613.138 181.374 617.587 179.299C623.849 176.379 629.405 175.46 634.256 176.541C639.134 177.61 643.379 180.044 646.99 183.844ZM729.344 205.225L733.57 214.288L680.839 238.877L676.613 229.814L729.344 205.225ZM761.685 191.548C756.247 194.084 750.964 195.411 745.836 195.528C740.736 195.633 736.162 194.606 732.113 192.448C728.079 190.25 724.921 186.992 722.639 182.673L733.021 177.832C734.508 180.448 736.537 182.361 739.107 183.57C741.664 184.751 744.524 185.257 747.688 185.085C750.851 184.914 754.053 184.073 757.294 182.562C760.919 180.872 763.838 178.741 766.05 176.172C768.262 173.602 769.64 170.82 770.183 167.825C770.725 164.83 770.305 161.85 768.922 158.884C767.475 155.78 765.432 153.406 762.792 151.762C760.14 150.089 757.017 149.272 753.424 149.309C749.83 149.347 745.891 150.364 741.607 152.362L734.851 155.513L730.624 146.45L737.38 143.299C740.731 141.737 743.388 139.762 745.351 137.376C747.342 134.976 748.539 132.345 748.942 129.482C749.374 126.606 748.897 123.685 747.514 120.719C746.182 117.863 744.392 115.672 742.142 114.146C739.893 112.621 737.339 111.805 734.482 111.7C731.652 111.582 728.685 112.247 725.581 113.694C722.67 115.051 720.173 116.867 718.091 119.142C716.024 121.377 714.647 123.875 713.962 126.635C713.264 129.368 713.499 132.167 714.668 135.032L704.781 139.643C702.884 135.144 702.41 130.651 703.36 126.162C704.296 121.646 706.348 117.513 709.514 113.763C712.708 110 716.736 106.985 721.597 104.719C726.815 102.285 731.785 101.255 736.506 101.628C741.214 101.974 745.371 103.396 748.977 105.894C752.583 108.392 755.314 111.632 757.171 115.614C759.386 120.365 760.026 124.999 759.089 129.515C758.18 134.018 755.897 137.908 752.242 141.184L752.55 141.843C758.288 140.237 763.505 140.563 768.202 142.819C772.886 145.049 776.476 148.841 778.974 154.197C781.112 158.783 781.784 163.485 780.988 168.303C780.207 173.081 778.16 177.513 774.849 181.598C771.538 185.683 767.15 189 761.685 191.548Z" fill="#A0A0A0"/>
</svg>
