<svg width="1024" height="512" viewBox="0 0 1024 512" fill="none" xmlns="http://www.w3.org/2000/svg">
<rect width="1024" height="512" fill="#D9D9D9"/>
<path d="M293.472 408.475L263.965 345.199L273.687 340.665L303.194 403.942L293.472 408.475ZM263.991 332.347C262.096 333.231 260.161 333.348 258.186 332.697C256.238 332.034 254.842 330.796 253.996 328.983C253.151 327.171 253.1 325.305 253.844 323.387C254.616 321.456 255.949 320.048 257.844 319.165C259.739 318.281 261.66 318.171 263.608 318.834C265.583 319.485 266.993 320.716 267.838 322.529C268.683 324.341 268.72 326.213 267.949 328.144C267.205 330.063 265.886 331.464 263.991 332.347ZM321.001 395.638L291.494 332.362L300.887 327.982L305.497 337.869L306.321 337.485C306.064 333.492 306.97 329.876 309.037 326.639C311.092 323.373 314.18 320.78 318.299 318.859C322.474 316.913 326.39 316.24 330.047 316.842C333.719 317.403 337.126 319.007 340.267 321.656L340.926 321.348C341.022 317.324 342.242 313.596 344.587 310.162C346.918 306.701 350.35 303.914 354.881 301.801C360.539 299.163 365.992 298.776 371.242 300.641C376.479 302.479 380.833 307.119 384.304 314.562L404.051 356.911L394.329 361.445L374.581 319.095C372.404 314.427 369.571 311.685 366.082 310.871C362.593 310.057 359.118 310.457 355.658 312.071C351.209 314.146 348.39 317.099 347.2 320.93C345.998 324.734 346.351 328.682 348.26 332.774L367.47 373.97L357.583 378.58L337.374 335.242C335.696 331.644 333.178 329.291 329.819 328.182C326.447 327.046 322.921 327.337 319.241 329.053C316.714 330.231 314.666 332.005 313.096 334.375C311.554 336.733 310.668 339.42 310.436 342.437C310.219 345.413 310.834 348.453 312.281 351.557L330.723 391.105L321.001 395.638ZM441.139 341.422C437.13 343.292 433.139 344.234 429.166 344.247C425.181 344.233 421.554 343.232 418.287 341.245C415.007 339.231 412.407 336.163 410.486 332.044C408.795 328.419 408.139 325.147 408.517 322.229C408.882 319.284 409.959 316.608 411.746 314.203C413.533 311.798 415.722 309.608 418.311 307.631C420.915 305.615 423.596 303.729 426.356 301.974C429.97 299.687 432.914 297.863 435.188 296.501C437.477 295.1 439.024 293.827 439.828 292.683C440.659 291.526 440.71 290.165 439.98 288.6L439.826 288.27C437.931 284.205 435.346 281.566 432.071 280.351C428.824 279.124 424.962 279.554 420.485 281.641C415.844 283.805 412.679 286.518 410.99 289.78C409.301 293.042 408.459 296.076 408.464 298.882L397.699 299.89C397.554 295.276 398.355 291.258 400.102 287.835C401.865 284.372 404.181 281.453 407.052 279.078C409.938 276.662 412.974 274.712 416.16 273.226C418.192 272.278 420.642 271.437 423.509 270.702C426.391 269.926 429.413 269.704 432.576 270.034C435.767 270.352 438.885 271.624 441.928 273.849C444.972 276.074 447.666 279.699 450.009 284.725L469.45 326.415L459.728 330.949L455.732 322.38L455.238 322.611C455.219 324.291 454.805 326.273 453.997 328.555C453.189 330.838 451.764 333.124 449.723 335.414C447.681 337.703 444.82 339.706 441.139 341.422ZM438.55 331.997C442.395 330.204 445.284 327.938 447.216 325.198C449.175 322.445 450.271 319.56 450.502 316.543C450.761 313.514 450.276 310.681 449.047 308.044L444.897 299.146C444.716 299.832 444.021 300.708 442.812 301.773C441.619 302.798 440.186 303.884 438.514 305.031C436.857 306.138 435.228 307.199 433.628 308.213C432.042 309.186 430.76 309.985 429.78 310.609C427.407 312.116 425.295 313.753 423.444 315.519C421.607 317.245 420.355 319.15 419.688 321.233C419.036 323.276 419.286 325.533 420.439 328.005C422.014 331.383 424.454 333.354 427.76 333.919C431.081 334.443 434.678 333.803 438.55 331.997ZM524.416 331.278C519.72 333.468 515.401 334.746 511.459 335.113C507.53 335.507 503.985 335.254 500.824 334.354C497.703 333.469 494.971 332.236 492.628 330.653L497.837 321.604C499.254 322.348 500.981 323.147 503.018 324.003C505.068 324.886 507.517 325.332 510.364 325.342C513.251 325.367 516.603 324.489 520.42 322.709C525.529 320.327 529.168 317.125 531.338 313.104C533.509 309.082 533.365 304.435 530.906 299.162L524.912 286.309L524.089 286.693C523.912 288.18 523.562 290.082 523.038 292.399C522.528 294.676 521.359 297.044 519.529 299.502C517.714 301.92 514.747 304.089 510.627 306.01C505.519 308.392 500.369 309.323 495.178 308.801C490.013 308.267 485.175 306.244 480.661 302.731C476.175 299.206 472.395 294.147 469.322 287.556C466.3 281.074 464.807 274.899 464.846 269.03C464.871 263.133 466.302 257.919 469.137 253.387C471.959 248.828 476.035 245.306 481.363 242.821C485.482 240.9 489.071 240.063 492.128 240.309C495.199 240.515 497.784 241.182 499.882 242.311C501.994 243.399 503.663 244.326 504.89 245.091L505.878 244.63L501.191 234.578L510.584 230.198L540.936 295.288C543.471 300.726 544.297 305.724 543.413 310.282C542.57 314.855 540.446 318.904 537.042 322.431C533.678 325.972 529.469 328.921 524.416 331.278ZM507.873 296.662C511.773 294.844 514.652 292.414 516.512 289.374C518.371 286.334 519.219 282.812 519.057 278.808C518.896 274.804 517.726 270.468 515.549 265.799C513.423 261.24 510.86 257.537 507.861 254.689C504.861 251.842 501.555 250.057 497.941 249.334C494.328 248.612 490.543 249.173 486.589 251.017C482.469 252.938 479.523 255.583 477.75 258.95C476.004 262.306 475.264 266.061 475.53 270.217C475.824 274.36 476.969 278.573 478.967 282.858C481.016 287.252 483.515 290.818 486.463 293.555C489.426 296.253 492.716 297.929 496.331 298.584C499.961 299.198 503.809 298.557 507.873 296.662ZM585.032 274.124C578.935 276.967 573.048 278.073 567.371 277.444C561.709 276.774 556.55 274.566 551.894 270.819C547.252 267.031 543.42 261.897 540.398 255.416C537.376 248.934 535.893 242.671 535.95 236.626C536.021 230.541 537.538 225.119 540.502 220.36C543.48 215.561 547.825 211.829 553.538 209.166C556.833 207.629 560.344 206.661 564.069 206.261C567.795 205.861 571.552 206.282 575.341 207.524C579.118 208.739 582.73 211 586.178 214.308C589.626 217.615 592.727 222.221 595.48 228.126L597.401 232.245L548.625 254.99L544.706 246.586L583.595 228.452C581.93 224.881 579.731 222.028 576.996 219.893C574.289 217.745 571.254 216.469 567.889 216.065C564.552 215.649 561.126 216.26 557.61 217.899C553.738 219.705 550.835 222.229 548.903 225.47C546.985 228.671 545.982 232.148 545.893 235.901C545.804 239.654 546.573 243.275 548.199 246.762L550.812 252.365C553.04 257.144 555.753 260.811 558.951 263.365C562.163 265.88 565.655 267.311 569.428 267.658C573.188 267.977 577.032 267.221 580.959 265.39C583.513 264.199 585.654 262.766 587.381 261.092C589.122 259.377 590.409 257.439 591.24 255.28C592.059 253.092 592.369 250.708 592.168 248.126L602.79 246.383C603.287 250.03 602.932 253.606 601.724 257.111C600.504 260.589 598.491 263.802 595.686 266.748C592.867 269.667 589.316 272.126 585.032 274.124ZM647.33 183.686L639.749 190.23C638.521 189.03 637.051 187.994 635.34 187.12C633.643 186.206 631.677 185.719 629.442 185.657C627.206 185.596 624.674 186.225 621.846 187.545C617.973 189.35 615.162 191.748 613.413 194.737C611.679 197.685 611.445 200.519 612.713 203.238C613.84 205.655 615.609 207.154 618.02 207.735C620.431 208.316 623.721 208.202 627.892 207.394L638.36 205.322C644.658 204.057 649.854 204.192 653.946 205.727C658.027 207.235 661.098 210.2 663.159 214.621C664.85 218.247 665.318 221.974 664.562 225.804C663.834 229.62 662.001 233.217 659.061 236.594C656.122 239.97 652.195 242.805 647.279 245.097C640.825 248.107 634.83 249.197 629.294 248.368C623.758 247.539 619.172 244.696 615.536 239.838L623.688 233.228C626.155 236.223 629.008 238.003 632.246 238.566C635.512 239.116 639.136 238.462 643.118 236.606C647.65 234.492 650.799 231.854 652.567 228.689C654.349 225.484 654.606 222.522 653.338 219.803C652.314 217.606 650.687 216.124 648.457 215.358C646.215 214.565 643.328 214.54 639.796 215.285L628.098 217.73C621.662 219.059 616.413 218.916 612.349 217.3C608.3 215.644 605.258 212.633 603.221 208.266C601.557 204.696 601.086 201.07 601.81 197.389C602.562 193.694 604.317 190.251 607.075 187.06C609.86 183.855 613.478 181.215 617.927 179.141C624.188 176.221 629.745 175.301 634.596 176.383C639.474 177.452 643.719 179.886 647.33 183.686ZM729.684 205.066L733.91 214.129L681.179 238.718L676.953 229.655L729.684 205.066ZM721.688 187.73L717.769 179.327L727.49 103.375L733.587 100.532L739.657 113.55L735.538 115.471L728.195 172.86L728.502 173.519L778.431 150.237L782.657 159.3L721.688 187.73ZM769.469 186.514L760.209 166.658L758.384 162.744L730.127 102.145L739.849 97.6118L779.191 181.981L769.469 186.514Z" fill="#A0A0A0"/>
</svg>
