<svg width="1024" height="512" viewBox="0 0 1024 512" fill="none" xmlns="http://www.w3.org/2000/svg">
<rect width="1024" height="512" fill="#D9D9D9"/>
<path d="M294.774 407.868L265.268 344.591L274.99 340.058L304.497 403.334L294.774 407.868ZM265.294 331.74C263.399 332.623 261.464 332.74 259.489 332.09C257.541 331.426 256.144 330.188 255.299 328.376C254.454 326.563 254.403 324.698 255.147 322.779C255.918 320.848 257.252 319.441 259.147 318.557C261.042 317.673 262.963 317.563 264.91 318.227C266.886 318.877 268.296 320.109 269.141 321.921C269.986 323.734 270.023 325.606 269.252 327.537C268.508 329.455 267.189 330.856 265.294 331.74ZM322.303 395.031L292.797 331.754L302.19 327.374L306.8 337.261L307.624 336.877C307.367 332.884 308.272 329.269 310.34 326.031C312.395 322.766 315.482 320.173 319.602 318.252C323.777 316.305 327.693 315.632 331.35 316.234C335.022 316.795 338.429 318.4 341.569 321.048L342.228 320.741C342.325 316.717 343.545 312.988 345.889 309.555C348.221 306.093 351.652 303.306 356.184 301.193C361.842 298.555 367.295 298.169 372.545 300.034C377.782 301.871 382.136 306.512 385.606 313.954L405.354 356.304L395.632 360.837L375.884 318.488C373.707 313.819 370.874 311.078 367.385 310.264C363.896 309.45 360.421 309.85 356.961 311.464C352.512 313.538 349.692 316.491 348.503 320.322C347.301 324.126 347.654 328.074 349.562 332.166L368.772 373.362L358.885 377.972L338.677 334.634C336.999 331.037 334.481 328.684 331.122 327.575C327.75 326.439 324.224 326.729 320.544 328.445C318.017 329.623 315.969 331.398 314.399 333.768C312.857 336.125 311.97 338.812 311.739 341.829C311.522 344.806 312.137 347.846 313.584 350.949L332.026 390.497L322.303 395.031ZM442.442 340.815C438.433 342.684 434.441 343.626 430.469 343.64C426.483 343.626 422.857 342.625 419.59 340.638C416.31 338.623 413.71 335.556 411.789 331.436C410.098 327.811 409.442 324.539 409.82 321.621C410.185 318.676 411.261 316.001 413.049 313.596C414.836 311.191 417.025 309 419.614 307.024C422.218 305.007 424.899 303.121 427.658 301.367C431.273 299.079 434.217 297.255 436.491 295.894C438.78 294.492 440.326 293.219 441.13 292.075C441.962 290.919 442.013 289.558 441.283 287.992L441.129 287.663C439.234 283.598 436.648 280.958 433.374 279.744C430.126 278.516 426.265 278.946 421.788 281.033C417.147 283.198 413.981 285.911 412.293 289.173C410.604 292.434 409.762 295.468 409.766 298.275L399.002 299.282C398.857 294.669 399.658 290.651 401.405 287.228C403.167 283.765 405.484 280.846 408.355 278.47C411.241 276.055 414.277 274.104 417.463 272.618C419.495 271.671 421.945 270.829 424.812 270.094C427.693 269.319 430.716 269.096 433.879 269.427C437.07 269.745 440.187 271.016 443.231 273.241C446.275 275.466 448.969 279.092 451.312 284.118L470.753 325.808L461.03 330.341L457.035 321.773L456.54 322.003C456.522 323.684 456.108 325.665 455.3 327.948C454.492 330.231 453.067 332.517 451.025 334.806C448.983 337.096 446.122 339.099 442.442 340.815ZM439.853 331.39C443.698 329.597 446.586 327.33 448.519 324.59C450.478 321.838 451.574 318.953 451.805 315.936C452.064 312.906 451.579 310.073 450.35 307.437L446.2 298.538C446.019 299.225 445.324 300.1 444.115 301.166C442.921 302.19 441.489 303.276 439.817 304.424C438.16 305.531 436.531 306.591 434.931 307.605C433.345 308.578 432.062 309.377 431.083 310.001C428.71 311.509 426.598 313.146 424.746 314.912C422.91 316.638 421.658 318.542 420.991 320.625C420.339 322.668 420.589 324.925 421.741 327.397C423.317 330.775 425.757 332.747 429.063 333.311C432.384 333.836 435.98 333.195 439.853 331.39ZM525.719 330.67C521.022 332.86 516.703 334.138 512.762 334.505C508.833 334.899 505.288 334.647 502.127 333.747C499.006 332.862 496.274 331.628 493.931 330.046L499.14 320.996C500.557 321.74 502.284 322.54 504.321 323.395C506.371 324.278 508.82 324.725 511.666 324.735C514.553 324.759 517.906 323.882 521.723 322.101C526.831 319.719 530.471 316.518 532.641 312.496C534.812 308.475 534.668 303.828 532.209 298.555L526.215 285.702L525.391 286.086C525.215 287.572 524.865 289.474 524.341 291.792C523.831 294.069 522.662 296.437 520.832 298.895C519.017 301.312 516.05 303.482 511.93 305.403C506.822 307.785 501.672 308.715 496.48 308.194C491.316 307.659 486.477 305.636 481.964 302.123C477.478 298.598 473.698 293.54 470.625 286.948C467.602 280.467 466.11 274.292 466.149 268.422C466.174 262.526 467.605 257.312 470.44 252.78C473.262 248.22 477.337 244.698 482.665 242.214C486.785 240.293 490.373 239.456 493.43 239.702C496.502 239.908 499.087 240.575 501.185 241.703C503.297 242.791 504.966 243.718 506.193 244.484L507.181 244.023L502.494 233.971L511.887 229.591L542.238 294.68C544.774 300.118 545.6 305.116 544.716 309.674C543.873 314.247 541.749 318.297 538.345 321.823C534.981 325.365 530.772 328.314 525.719 330.67ZM509.176 296.055C513.076 294.236 515.955 291.807 517.814 288.766C519.673 285.726 520.522 282.204 520.36 278.201C520.198 274.197 519.029 269.861 516.852 265.192C514.726 260.633 512.163 256.929 509.164 254.082C506.164 251.234 502.857 249.449 499.244 248.727C495.63 248.005 491.846 248.565 487.891 250.41C483.772 252.331 480.825 254.975 479.052 258.343C477.307 261.698 476.567 265.453 476.833 269.609C477.127 273.752 478.272 277.966 480.27 282.25C482.319 286.644 484.818 290.21 487.766 292.948C490.729 295.645 494.019 297.321 497.634 297.976C501.264 298.59 505.111 297.95 509.176 296.055ZM586.335 273.516C580.238 276.359 574.351 277.466 568.674 276.836C563.012 276.166 557.853 273.958 553.197 270.211C548.555 266.424 544.723 261.29 541.701 254.808C538.679 248.327 537.196 242.063 537.252 236.019C537.324 229.933 538.841 224.511 541.805 219.753C544.783 214.953 549.128 211.222 554.84 208.558C558.136 207.021 561.647 206.053 565.372 205.653C569.098 205.253 572.855 205.675 576.644 206.917C580.421 208.132 584.033 210.393 587.481 213.7C590.929 217.007 594.029 221.613 596.783 227.518L598.704 231.638L549.928 254.382L546.009 245.978L584.898 227.844C583.233 224.274 581.034 221.421 578.299 219.285C575.592 217.137 572.556 215.861 569.192 215.458C565.855 215.041 562.428 215.652 558.913 217.292C555.041 219.097 552.138 221.621 550.206 224.863C548.288 228.064 547.285 231.541 547.196 235.294C547.107 239.047 547.876 242.667 549.502 246.155L552.115 251.758C554.343 256.536 557.056 260.203 560.253 262.758C563.465 265.272 566.958 266.703 570.731 267.05C574.491 267.37 578.335 266.614 582.262 264.783C584.816 263.592 586.957 262.159 588.683 260.484C590.425 258.769 591.712 256.832 592.543 254.672C593.362 252.485 593.671 250.1 593.471 247.519L604.093 245.776C604.59 249.422 604.234 252.999 603.027 256.504C601.807 259.982 599.794 263.194 596.988 266.141C594.17 269.06 590.619 271.518 586.335 273.516ZM648.632 183.078L641.052 189.622C639.823 188.423 638.354 187.386 636.642 186.513C634.946 185.599 632.98 185.111 630.744 185.05C628.509 184.989 625.977 185.618 623.148 186.937C619.276 188.743 616.465 191.14 614.716 194.129C612.981 197.078 612.748 199.912 614.016 202.63C615.143 205.047 616.912 206.546 619.323 207.127C621.733 207.708 625.024 207.595 629.195 206.787L639.663 204.714C645.961 203.449 651.156 203.584 655.249 205.12C659.329 206.627 662.4 209.592 664.462 214.014C666.153 217.639 666.62 221.366 665.865 225.196C665.137 229.013 663.303 232.609 660.364 235.986C657.425 239.363 653.497 242.197 648.581 244.49C642.127 247.499 636.133 248.59 630.597 247.761C625.061 246.931 620.475 244.088 616.839 239.23L624.991 232.62C627.458 235.616 630.311 237.395 633.549 237.958C636.815 238.508 640.439 237.855 644.421 235.998C648.952 233.885 652.102 231.246 653.87 228.081C655.652 224.876 655.909 221.914 654.641 219.195C653.617 216.998 651.989 215.517 649.76 214.751C647.518 213.958 644.631 213.933 641.099 214.677L629.4 217.123C622.965 218.452 617.716 218.309 613.652 216.693C609.603 215.037 606.561 212.025 604.524 207.658C602.859 204.088 602.389 200.462 603.113 196.781C603.865 193.087 605.62 189.644 608.378 186.452C611.163 183.247 614.78 180.608 619.23 178.533C625.491 175.613 631.048 174.694 635.899 175.775C640.777 176.844 645.022 179.278 648.632 183.078ZM730.987 204.459L735.213 213.522L682.482 238.111L678.256 229.048L730.987 204.459ZM761.185 191.781C756.352 194.035 751.55 195.104 746.782 194.987C742.013 194.87 737.68 193.681 733.783 191.419C729.886 189.157 726.829 185.935 724.611 181.753L734.498 177.143C736.663 180.781 739.866 183.132 744.107 184.197C748.363 185.222 752.647 184.729 756.959 182.718C760.42 181.104 763.118 178.86 765.054 175.985C767.017 173.096 768.108 169.879 768.327 166.333C768.561 162.747 767.839 159.155 766.161 155.557C764.445 151.877 762.104 148.973 759.139 146.845C756.189 144.676 752.922 143.408 749.34 143.039C745.757 142.67 742.161 143.31 738.55 144.961C735.956 146.137 733.491 147.771 731.156 149.863C728.809 151.927 727.051 154.001 725.882 156.084L715.787 159.387L701.532 115.479L745.364 95.0401L749.59 104.103L714.326 120.547L722.963 146.812L723.458 146.582C724.547 144.402 726.186 142.25 728.372 140.127C730.559 138.004 733.066 136.283 735.895 134.964C741.058 132.557 746.235 131.647 751.424 132.237C756.629 132.785 761.377 134.65 765.669 137.832C769.988 141 773.422 145.317 775.971 150.782C778.481 156.165 779.514 161.535 779.069 166.891C778.639 172.207 776.893 177.067 773.831 181.471C770.756 185.847 766.541 189.284 761.185 191.781Z" fill="#A0A0A0"/>
</svg>
