<svg width="1024" height="512" viewBox="0 0 1024 512" fill="none" xmlns="http://www.w3.org/2000/svg">
<rect width="1024" height="512" fill="#D9D9D9"/>
<path d="M306.726 402.295L277.22 339.018L286.942 334.484L316.449 397.761L306.726 402.295ZM277.246 326.167C275.351 327.05 273.416 327.167 271.44 326.516C269.493 325.853 268.096 324.615 267.251 322.802C266.406 320.99 266.355 319.124 267.099 317.206C267.87 315.275 269.203 313.868 271.098 312.984C272.993 312.1 274.915 311.99 276.862 312.653C278.838 313.304 280.248 314.535 281.093 316.348C281.938 318.161 281.975 320.032 281.204 321.964C280.46 323.882 279.141 325.283 277.246 326.167ZM334.255 389.458L304.749 326.181L314.142 321.801L318.752 331.688L319.576 331.304C319.319 327.311 320.224 323.696 322.292 320.458C324.347 317.192 327.434 314.599 331.554 312.678C335.729 310.732 339.645 310.059 343.302 310.661C346.974 311.222 350.381 312.827 353.521 315.475L354.18 315.167C354.277 311.144 355.497 307.415 357.841 303.981C360.173 300.52 363.604 297.733 368.136 295.62C373.793 292.982 379.247 292.595 384.497 294.46C389.734 296.298 394.088 300.938 397.558 308.381L417.306 350.73L407.584 355.264L387.836 312.915C385.659 308.246 382.826 305.504 379.337 304.691C375.848 303.877 372.373 304.277 368.913 305.89C364.464 307.965 361.644 310.918 360.455 314.749C359.253 318.553 359.606 322.501 361.514 326.593L380.724 367.789L370.837 372.399L350.628 329.061C348.951 325.463 346.432 323.11 343.074 322.002C339.702 320.866 336.176 321.156 332.496 322.872C329.969 324.05 327.921 325.824 326.351 328.195C324.809 330.552 323.922 333.239 323.691 336.256C323.474 339.233 324.089 342.273 325.536 345.376L343.978 384.924L334.255 389.458ZM454.394 335.241C450.384 337.111 446.393 338.053 442.421 338.066C438.435 338.052 434.809 337.052 431.542 335.064C428.262 333.05 425.662 329.983 423.741 325.863C422.05 322.238 421.394 318.966 421.772 316.048C422.137 313.103 423.213 310.428 425.001 308.023C426.788 305.618 428.976 303.427 431.566 301.451C434.169 299.434 436.851 297.548 439.61 295.793C443.225 293.506 446.169 291.682 448.443 290.32C450.732 288.919 452.278 287.646 453.082 286.502C453.914 285.345 453.964 283.984 453.235 282.419L453.081 282.089C451.185 278.025 448.6 275.385 445.326 274.17C442.078 272.943 438.217 273.373 433.74 275.46C429.098 277.625 425.933 280.338 424.245 283.599C422.556 286.861 421.714 289.895 421.718 292.702L410.954 293.709C410.809 289.096 411.61 285.078 413.357 281.655C415.119 278.192 417.436 275.272 420.307 272.897C423.193 270.481 426.229 268.531 429.415 267.045C431.447 266.097 433.897 265.256 436.764 264.521C439.645 263.746 442.668 263.523 445.831 263.854C449.022 264.171 452.139 265.443 455.183 267.668C458.227 269.893 460.92 273.519 463.264 278.544L482.705 320.235L472.982 324.768L468.987 316.199L468.492 316.43C468.473 318.11 468.06 320.092 467.252 322.375C466.444 324.657 465.019 326.943 462.977 329.233C460.935 331.523 458.074 333.525 454.394 335.241ZM451.805 325.816C455.65 324.023 458.538 321.757 460.47 319.017C462.43 316.264 463.526 313.379 463.757 310.363C464.016 307.333 463.531 304.5 462.302 301.863L458.152 292.965C457.971 293.651 457.276 294.527 456.067 295.592C454.873 296.617 453.441 297.703 451.769 298.851C450.112 299.958 448.483 301.018 446.883 302.032C445.297 303.005 444.014 303.804 443.035 304.428C440.662 305.936 438.55 307.573 436.698 309.339C434.862 311.064 433.61 312.969 432.943 315.052C432.291 317.095 432.541 319.352 433.693 321.824C435.268 325.202 437.709 327.173 441.015 327.738C444.336 328.263 447.932 327.622 451.805 325.816ZM537.671 325.097C532.974 327.287 528.655 328.565 524.714 328.932C520.785 329.326 517.24 329.073 514.079 328.174C510.958 327.289 508.226 326.055 505.883 324.472L511.092 315.423C512.509 316.167 514.236 316.966 516.273 317.822C518.323 318.705 520.772 319.151 523.618 319.161C526.505 319.186 529.858 318.308 533.675 316.528C538.783 314.146 542.423 310.944 544.593 306.923C546.764 302.902 546.62 298.254 544.161 292.981L538.167 280.128L537.343 280.513C537.167 281.999 536.817 283.901 536.293 286.218C535.783 288.496 534.613 290.863 532.784 293.321C530.969 295.739 528.002 297.908 523.882 299.829C518.774 302.212 513.624 303.142 508.432 302.62C503.268 302.086 498.429 300.063 493.916 296.55C489.43 293.025 485.65 287.966 482.577 281.375C479.554 274.894 478.062 268.718 478.101 262.849C478.126 256.953 479.557 251.738 482.392 247.206C485.214 242.647 489.289 239.125 494.617 236.641C498.737 234.72 502.325 233.882 505.382 234.128C508.454 234.334 511.039 235.002 513.137 236.13C515.249 237.218 516.918 238.145 518.144 238.91L519.133 238.449L514.446 228.397L523.839 224.018L554.19 289.107C556.726 294.545 557.552 299.543 556.668 304.101C555.825 308.674 553.701 312.723 550.297 316.25C546.933 319.792 542.724 322.74 537.671 325.097ZM521.128 290.481C525.028 288.663 527.907 286.233 529.766 283.193C531.625 280.153 532.474 276.631 532.312 272.627C532.15 268.624 530.981 264.287 528.804 259.618C526.678 255.059 524.115 251.356 521.116 248.508C518.116 245.661 514.809 243.876 511.196 243.154C507.582 242.431 503.798 242.992 499.843 244.836C495.724 246.757 492.777 249.402 491.004 252.77C489.259 256.125 488.519 259.88 488.785 264.036C489.078 268.179 490.224 272.392 492.222 276.677C494.271 281.071 496.77 284.637 499.718 287.375C502.681 290.072 505.97 291.748 509.586 292.403C513.216 293.017 517.063 292.377 521.128 290.481ZM598.286 267.943C592.189 270.786 586.303 271.893 580.626 271.263C574.964 270.593 569.805 268.385 565.149 264.638C560.507 260.851 556.675 255.716 553.653 249.235C550.63 242.753 549.148 236.49 549.204 230.445C549.276 224.36 550.793 218.938 553.757 214.179C556.735 209.38 561.08 205.649 566.792 202.985C570.088 201.448 573.599 200.48 577.324 200.08C581.05 199.68 584.807 200.101 588.596 201.344C592.373 202.559 595.985 204.82 599.433 208.127C602.881 211.434 605.981 216.04 608.735 221.945L610.656 226.064L561.88 248.809L557.961 240.405L596.85 222.271C595.185 218.7 592.986 215.848 590.251 213.712C587.544 211.564 584.508 210.288 581.144 209.884C577.807 209.468 574.38 210.079 570.865 211.718C566.992 213.524 564.09 216.048 562.158 219.289C560.24 222.491 559.237 225.968 559.148 229.721C559.059 233.473 559.828 237.094 561.454 240.582L564.067 246.184C566.295 250.963 569.008 254.63 572.205 257.184C575.417 259.699 578.91 261.13 582.683 261.477C586.443 261.796 590.287 261.041 594.214 259.209C596.768 258.018 598.909 256.585 600.635 254.911C602.377 253.196 603.663 251.259 604.495 249.099C605.314 246.911 605.623 244.527 605.423 241.946L616.045 240.202C616.542 243.849 616.186 247.425 614.979 250.931C613.759 254.409 611.746 257.621 608.94 260.567C606.122 263.486 602.571 265.945 598.286 267.943ZM660.584 177.505L653.003 184.049C651.775 182.85 650.306 181.813 648.594 180.939C646.898 180.025 644.932 179.538 642.696 179.477C640.461 179.416 637.929 180.045 635.1 181.364C631.228 183.169 628.417 185.567 626.668 188.556C624.933 191.504 624.7 194.338 625.968 197.057C627.095 199.474 628.864 200.973 631.275 201.554C633.685 202.135 636.976 202.022 641.147 201.214L651.615 199.141C657.913 197.876 663.108 198.011 667.201 199.546C671.281 201.054 674.352 204.019 676.414 208.441C678.105 212.066 678.572 215.793 677.817 219.623C677.089 223.439 675.255 227.036 672.316 230.413C669.377 233.79 665.449 236.624 660.533 238.917C654.079 241.926 648.084 243.016 642.549 242.187C637.013 241.358 632.427 238.515 628.791 233.657L636.943 227.047C639.41 230.043 642.263 231.822 645.501 232.385C648.767 232.935 652.391 232.282 656.373 230.425C660.904 228.312 664.054 225.673 665.821 222.508C667.604 219.303 667.861 216.341 666.593 213.622C665.568 211.425 663.941 209.944 661.712 209.178C659.47 208.384 656.583 208.36 653.051 209.104L641.352 211.55C634.917 212.879 629.668 212.735 625.604 211.119C621.555 209.463 618.512 206.452 616.476 202.085C614.811 198.515 614.341 194.889 615.065 191.208C615.817 187.514 617.572 184.071 620.33 180.879C623.115 177.674 626.732 175.034 631.181 172.96C637.443 170.04 643 169.121 647.851 170.202C652.729 171.271 656.974 173.705 660.584 177.505ZM742.938 198.886L747.165 207.949L694.434 232.537L690.208 223.474L742.938 198.886ZM729.303 102.53L768.645 186.899L758.428 191.663L724.081 118.005L723.586 118.235L709.366 141.517L704.525 131.136L719.086 107.294L729.303 102.53Z" fill="#A0A0A0"/>
</svg>
